<?xml version="1.0" encoding="utf-8"?>
<svg xmlns="http://www.w3.org/2000/svg" viewBox="0 0 500 500" xmlns:bx="https://boxy-svg.com" width="500px" height="500px"><defs><bx:export><bx:file format="svg"/></bx:export></defs><g id="Layer_1" transform="matrix(1, 0, 0, 1, -3.05936, 22.4915)"><path fill="#F86284" opacity="1.000000" stroke="none" d="M 303.156 388.811 C 296.011 398.488 286.551 405.402 276.924 412.001 C 241.746 436.112 202.955 444.894 161.25 440.754 C 128.997 437.552 98.997 427.552 72.704 407.454 C 37.654 380.66 18.142 344.299 12.318 299.714 C 7.85 265.518 13.701 232.789 25.207 200.883 C 29.055 190.214 32.629 179.403 37.536 169.181 C 49.177 144.929 64.004 119.736 66.501 116.276 C 76.542 102.367 85.725 87.566 97.619 75.327 C 120.363 51.924 142.144 41.337 146.297 39.208 C 169.201 27.473 193.279 23.5 218.27 29.865 C 237.397 34.736 255.326 43.172 272.876 52.245 C 272.28 52.935 271.898 53.39 271.445 53.751 C 261.97 61.298 251.994 68.26 243.11 76.493 C 224.409 93.823 208.082 113.486 195.402 135.977 C 186.535 151.703 178.93 168.206 171.007 184.49 C 169.28 188.041 170.055 191.974 172.947 194.811 C 176.15 197.955 179.988 198.135 183.595 195.22 C 185.208 193.917 186.51 191.868 187.326 189.881 C 196.463 167.622 207.279 146.403 221.435 127.047 C 232.82 111.482 245.123 96.875 259.986 84.829 C 270.405 76.384 281.202 68.44 292.142 60.231 C 295.206 58.886 298.019 57.704 300.701 56.262 C 327.441 41.896 355.361 31.449 385.406 27.358 C 410.751 23.907 435.842 23.962 460.487 31.61 C 472.508 35.34 495.626 44.788 491.049 53.026 C 485.907 62.282 476.162 67.986 469.189 75.913 C 461.53 84.619 453.828 93.412 447.24 102.979 C 437.04 117.789 427.448 133.082 418.172 148.542 C 401.065 177.053 389.07 208.017 378.751 239.728 C 372.572 258.715 366.835 277.872 360.089 296.638 C 353.426 315.17 344.493 332.637 334.06 349.228 C 325.071 363.525 315.26 377.135 303.156 388.811 Z" style=""/><path fill="#FFFFFF" opacity="1.000000" stroke="none" d="M 122.408 179.852 C 107.897 202.827 99.535 227.858 95.269 254.481 C 94.679 258.172 94.27 261.898 93.899 265.621 C 92.951 275.144 84.782 282.529 75.788 281.923 C 67.598 281.371 60.499 273.171 61.167 263.906 C 62.474 245.756 66.17 228.037 71.758 210.786 C 77.308 193.658 84.589 177.372 94.416 162.384 C 98.978 155.424 105.078 152.646 112.202 154.332 C 118.894 155.916 124.001 161.464 124.668 169.254 C 124.956 172.599 123.331 176.12 122.408 179.852 Z" style=""/><path fill="#CE4066" opacity="1.000000" stroke="none" d="M 272.603 52.087 C 278.914 54.416 285.659 57.581 291.98 60.43 C 281.544 68.839 270.405 76.384 259.986 84.829 C 245.123 96.875 232.82 111.482 221.435 127.047 C 207.279 146.403 196.463 167.622 187.326 189.881 C 186.51 191.868 185.208 193.917 183.595 195.22 C 179.988 198.135 176.15 197.955 172.947 194.811 C 170.055 191.974 169.28 188.041 171.007 184.49 C 178.93 168.206 186.535 151.703 195.402 135.977 C 208.082 113.486 224.409 93.823 243.11 76.493 C 251.994 68.26 272.007 52.777 272.603 52.087 Z" style=""/><path fill="#FFFFFF" opacity="1.000000" stroke="none" d="M 143.41 97.216 C 150.929 90.88 158.137 84.646 165.544 78.677 C 170.508 74.676 176.064 72.343 182.499 74.55 C 188.284 76.534 192.253 80.567 193.486 86.765 C 194.864 93.687 193.165 99.88 187.771 104.585 C 178.723 112.475 169.654 120.337 160.559 128.167 C 154.572 133.322 147.953 134.882 140.907 130.861 C 134.84 127.4 131.318 121.791 132.388 114.575 C 132.966 110.679 135.293 106.916 137.394 103.461 C 138.818 101.119 141.22 99.419 143.41 97.216 Z" style=""/></g></svg>