<svg version="1.1" id="Layer_1" xmlns="http://www.w3.org/2000/svg" xmlns:xlink="http://www.w3.org/1999/xlink" x="0px" y="0px"
	 width="100%" viewBox="600 600 860 860" xml:space="preserve">

<!-- tongue and top lip -->
<path fill="#F86284" opacity="1.000000" stroke="none" 
	d="
M1063.030640,1329.561768 
	C1054.797974,1340.302124 1043.897583,1347.975098 1032.804565,1355.297729 
	C992.270020,1382.055542 947.572327,1391.802856 899.515930,1387.207764 
	C862.351074,1383.653931 827.783447,1372.557495 797.487488,1350.252319 
	C757.097961,1320.515625 734.615845,1280.163086 727.903931,1230.683838 
	C722.755981,1192.733032 729.498291,1156.411377 742.756897,1121.001831 
	C747.190186,1109.161743 752.221252,1097.545654 756.962585,1085.820435 
	C757.443359,1084.631592 757.809814,1083.396606 758.463684,1081.505005 
	C784.895325,1032.408325 787.460999,1030.946167 790.339172,1027.106201 
	C801.909363,1011.669922 814.040771,996.649109 826.195679,981.661987 
	C828.017761,979.415283 828.287537,978.007812 826.834351,975.640747 
	C812.605530,952.462463 797.406677,930.038330 778.354370,910.423340 
	C769.036621,900.830505 769.576782,891.220825 780.219543,883.200439 
	C811.480225,859.642578 832.674255,827.708740 853.675903,795.628479 
	C866.081970,776.678101 877.639343,757.196167 894.235291,741.333557 
	C915.056335,721.432617 938.972656,707.532593 967.864990,704.310120 
	C1009.220947,699.697571 1043.278564,712.873413 1067.543945,747.893372 
	C1068.018311,748.578064 1068.506958,749.253967 1069.015259,749.913696 
	C1069.214844,750.172668 1069.486694,750.376099 1070.087769,750.951843 
	C1074.439575,747.359741 1078.795410,743.612244 1083.307739,740.064026 
	C1115.637451,714.642029 1152.089966,701.844971 1193.432861,705.100098 
	C1233.971680,708.291870 1263.025635,729.081604 1280.921387,765.109009 
	C1289.052734,781.478699 1295.249878,798.799988 1302.652832,815.544434 
	C1307.092285,825.585999 1312.165405,835.347412 1316.715332,845.813965 
	C1316.535278,847.400146 1315.160645,858.185913 1314.827393,858.966980 
	C1314.252075,860.314819 1313.188354,861.615173 1313.100220,862.984863 
	C1312.240112,876.378052 1303.298218,885.416138 1295.284912,894.544128 
	C1289.810303,900.780212 1280.003784,902.628357 1276.718018,911.577332 
	C1275.912598,913.771606 1274.891235,915.886597 1273.662842,917.903931 
	C1257.595581,902.693909 1241.798462,887.655334 1226.085205,872.529785 
	C1214.289795,861.175476 1200.815063,852.934509 1184.415283,850.484802 
	C1173.924072,848.917725 1163.504517,847.480469 1153.035645,852.049500 
	C1129.521118,862.312195 1104.807617,868.164917 1079.230957,870.242859 
	C1037.809448,873.608093 998.167175,868.486694 962.226685,845.645264 
	C960.193542,844.353027 957.667236,843.300049 955.304810,843.146729 
	C934.785645,841.814697 916.024841,846.566650 899.759216,859.697327 
	C886.423767,870.462524 873.118530,881.270935 859.574402,891.769165 
	C853.991760,896.096313 847.818848,899.661865 841.689636,903.722839 
	C842.609131,904.877991 843.195129,905.655701 843.823669,906.397522 
	C853.076599,917.319519 862.690857,927.962585 871.420288,939.287842 
	C874.994141,943.924377 877.499817,943.939575 882.287292,941.576965 
	C908.677307,928.553589 936.421509,924.144775 965.218567,931.208618 
	C987.257568,936.614807 1007.917969,945.976746 1028.140869,956.045654 
	C1027.454346,956.810730 1027.012817,957.316650 1026.490723,957.717224 
	C1015.573608,966.093018 1004.077942,973.818848 993.841309,982.955566 
	C972.293152,1002.188171 953.479004,1024.009644 938.867981,1048.969604 
	C928.651001,1066.423218 919.888306,1084.737793 910.757935,1102.810303 
	C908.767761,1106.749756 909.661377,1111.114746 912.994324,1114.264404 
	C916.685852,1117.753052 921.107178,1117.953125 925.262634,1114.717773 
	C927.121582,1113.270508 928.622192,1110.997803 929.562561,1108.791504 
	C940.091309,1084.090332 952.553833,1060.541016 968.866394,1039.060059 
	C981.984253,1021.785950 996.160828,1005.575928 1013.287170,992.207031 
	C1025.293457,982.834839 1037.734009,974.018799 1050.340088,964.907959 
	C1053.871094,963.416077 1057.111572,962.103943 1060.203247,960.504211 
	C1091.015259,944.560669 1123.186768,932.966919 1157.807251,928.426880 
	C1187.011108,924.597168 1215.923462,924.657898 1244.321411,933.144958 
	C1258.173706,937.284729 1271.851929,942.184753 1282.978516,952.358276 
	C1281.809570,954.111633 1280.802002,955.639038 1279.539062,956.913452 
	C1271.144897,965.384155 1262.383423,973.515076 1254.348999,982.311523 
	C1245.523438,991.974121 1236.649414,1001.731873 1229.057251,1012.349548 
	C1217.303955,1028.786499 1206.251465,1045.758301 1195.562744,1062.915039 
	C1175.850464,1094.555908 1162.029175,1128.919067 1150.138062,1164.111816 
	C1143.018433,1185.182617 1136.408325,1206.443604 1128.633911,1227.270020 
	C1120.956909,1247.835938 1110.663818,1267.220703 1098.642090,1285.634033 
	C1088.283569,1301.499756 1076.978638,1316.603516 1063.030640,1329.561768 
z"/>
<!-- right bottom lip -->
<path fill="#DB4A6E" opacity="1.000000" stroke="none" 
	d="
M1063.439819,1329.418457 
	C1076.978638,1316.603516 1088.283569,1301.499756 1098.642090,1285.634033 
	C1110.663818,1267.220703 1120.956909,1247.835938 1128.633911,1227.270020 
	C1136.408325,1206.443604 1143.018433,1185.182617 1150.138062,1164.111816 
	C1162.029175,1128.919067 1175.850464,1094.555908 1195.562744,1062.915039 
	C1206.251465,1045.758301 1217.303955,1028.786499 1229.057251,1012.349548 
	C1236.649414,1001.731873 1245.523438,991.974121 1254.348999,982.311523 
	C1262.383423,973.515076 1271.144897,965.384155 1279.539062,956.913452 
	C1280.802002,955.639038 1281.809570,954.111633 1283.329834,952.335449 
	C1288.791626,948.307068 1293.858643,944.644470 1299.182983,941.162476 
	C1298.691895,942.664001 1298.160522,944.183960 1297.160522,945.273987 
	C1289.912109,953.174377 1290.015015,953.911438 1297.370361,961.136536 
	C1298.638916,962.382690 1298.646729,965.100464 1298.858276,967.177002 
	C1299.039429,968.953735 1298.677734,970.785828 1298.580200,972.237183 
	C1303.791748,970.375488 1307.938354,968.690063 1312.209351,967.424255 
	C1316.758301,966.076050 1321.399048,964.372437 1326.047607,964.212158 
	C1330.683716,964.052124 1333.878052,962.919189 1336.134277,958.810913 
	C1339.738281,952.248779 1344.816528,949.109924 1352.793945,950.838989 
	C1357.866943,951.938660 1360.653442,948.289673 1360.565186,942.841858 
	C1360.539551,941.253784 1361.404541,939.172119 1362.582275,938.138550 
	C1365.448486,935.623535 1367.681641,933.537903 1363.185547,930.552185 
	C1362.597046,930.161377 1361.948853,928.981445 1362.133789,928.444641 
	C1363.522339,924.413330 1359.693604,922.305908 1358.947266,919.213318 
	C1357.860352,914.709717 1352.689941,911.115173 1355.724365,905.589417 
	C1355.939087,905.198425 1354.915527,903.480530 1354.312012,903.387268 
	C1348.319824,902.461487 1348.906860,898.094971 1349.123779,893.878174 
	C1354.098633,898.923706 1358.926147,904.126465 1364.088745,908.972046 
	C1369.566895,914.113831 1375.073364,919.307251 1381.091187,923.772339 
	C1389.322144,929.879456 1390.044312,940.908752 1381.684814,946.861328 
	C1365.860107,958.129517 1352.013306,971.636658 1339.061646,985.879333 
	C1317.175293,1009.947083 1299.664673,1037.203125 1284.007202,1065.687134 
	C1267.834351,1095.109131 1256.237061,1126.468750 1244.064087,1157.623779 
	C1226.921509,1201.498291 1203.734863,1241.651367 1169.035522,1274.247192 
	C1140.424194,1301.124146 1107.113892,1319.496704 1068.747070,1328.399536 
	C1067.133545,1328.774048 1065.482544,1328.986938 1063.439819,1329.418457 
z"/>
<!-- right mouth corner -->
<path fill="#E45074" opacity="1.000000" stroke="none" 
	d="
M1349.095947,893.893188 
	C1348.906860,898.094971 1348.319824,902.461487 1354.312012,903.387268 
	C1354.915527,903.480530 1355.939087,905.198425 1355.724365,905.589417 
	C1352.689941,911.115173 1357.860352,914.709717 1358.947266,919.213318 
	C1359.693604,922.305908 1363.522339,924.413330 1362.133789,928.444641 
	C1361.948853,928.981445 1362.597046,930.161377 1363.185547,930.552185 
	C1367.681641,933.537903 1365.448486,935.623535 1362.582275,938.138550 
	C1361.404541,939.172119 1360.539551,941.253784 1360.565186,942.841858 
	C1360.653442,948.289673 1357.866943,951.938660 1352.793945,950.838989 
	C1344.816528,949.109924 1339.738281,952.248779 1336.134277,958.810913 
	C1333.878052,962.919189 1330.683716,964.052124 1326.047607,964.212158 
	C1321.399048,964.372437 1316.758301,966.076050 1312.209351,967.424255 
	C1307.938354,968.690063 1303.791748,970.375488 1298.580200,972.237183 
	C1298.677734,970.785828 1299.039429,968.953735 1298.858276,967.177002 
	C1298.646729,965.100464 1298.638916,962.382690 1297.370361,961.136536 
	C1290.015015,953.911438 1289.912109,953.174377 1297.160522,945.273987 
	C1298.160522,944.183960 1298.691895,942.664001 1299.172363,940.820068 
	C1297.794800,939.124756 1296.771240,937.854004 1295.561401,936.796509 
	C1288.732788,930.827454 1281.859497,924.909546 1274.879761,918.762878 
	C1274.545166,918.292114 1274.278687,918.112061 1273.974854,918.009155 
	C1273.990967,918.007019 1273.969116,918.038025 1273.969116,918.038025 
	C1274.891235,915.886597 1275.912598,913.771606 1276.718018,911.577332 
	C1280.003784,902.628357 1289.810303,900.780212 1295.284912,894.544128 
	C1303.298218,885.416138 1312.240112,876.378052 1313.100220,862.984863 
	C1313.188354,861.615173 1314.252075,860.314819 1314.827393,858.966980 
	C1315.160645,858.185913 1316.535278,847.400146 1316.746948,846.166138 
	C1323.909302,856.751038 1330.801514,867.562805 1337.632324,878.824585 
	C1337.791992,879.467224 1338.012817,879.659912 1338.233765,879.852539 
	C1338.233765,879.852539 1338.142212,879.928101 1338.195557,880.134705 
	C1338.535889,880.546021 1338.822876,880.750732 1339.109863,880.955444 
	C1339.109863,880.955444 1339.033813,880.974915 1339.131348,881.174805 
	C1339.495605,881.577332 1339.762329,881.779907 1340.028931,881.982483 
	C1340.374756,882.044556 1340.624268,882.233704 1340.673706,882.913696 
	C1340.794067,883.462402 1341.018433,883.647339 1341.242676,883.832275 
	C1341.242676,883.832275 1341.161011,883.916382 1341.210083,884.129700 
	C1341.556519,884.539246 1341.853882,884.735413 1342.151245,884.931580 
	C1342.151245,884.931580 1342.054565,884.928833 1342.053833,885.275391 
	C1342.801392,886.325806 1343.549805,887.029663 1344.298096,887.733521 
	C1344.298096,887.733521 1344.250366,887.843567 1344.262451,888.082642 
	C1344.581299,888.510803 1344.888062,888.699890 1345.194824,888.888977 
	C1345.194824,888.888977 1345.098511,888.921753 1345.178467,889.133423 
	C1345.553345,889.540100 1345.848511,889.735107 1346.143677,889.930176 
	C1346.143677,889.930115 1346.041748,889.925171 1346.046875,890.276978 
	C1346.810303,891.311707 1347.568481,891.994568 1348.326660,892.677429 
	C1348.326660,892.677429 1348.303223,892.799072 1348.286011,893.058105 
	C1348.550903,893.528076 1348.832886,893.738953 1349.114990,893.949890 
	C1349.114990,893.949890 1349.067993,893.908203 1349.095947,893.893188 
z"/>
<!-- mouth inner -->
<path fill="#363339" opacity="1.000000" stroke="none" 
	d="
M1275.001465,918.974243 
	C1281.859497,924.909546 1288.732788,930.827454 1295.561401,936.796509 
	C1296.771240,937.854004 1297.794800,939.124756 1298.915039,940.639526 
	C1293.858643,944.644470 1288.791626,948.307068 1283.373047,951.992432 
	C1271.851929,942.184753 1258.173706,937.284729 1244.321411,933.144958 
	C1215.923462,924.657898 1187.011108,924.597168 1157.807251,928.426880 
	C1123.186768,932.966919 1091.015259,944.560669 1060.203247,960.504211 
	C1057.111572,962.103943 1053.871094,963.416077 1050.119873,964.640503 
	C1042.476074,961.525330 1035.412231,958.631348 1028.348267,955.737366 
	C1007.917969,945.976746 987.257568,936.614807 965.218567,931.208618 
	C936.421509,924.144775 908.677307,928.553589 882.287292,941.576965 
	C877.499817,943.939575 874.994141,943.924377 871.420288,939.287842 
	C862.690857,927.962585 853.076599,917.319519 843.823669,906.397522 
	C843.195129,905.655701 842.609131,904.877991 841.689636,903.722839 
	C847.818848,899.661865 853.991760,896.096313 859.574402,891.769165 
	C873.118530,881.270935 886.423767,870.462524 899.759216,859.697327 
	C916.024841,846.566650 934.785645,841.814697 955.304810,843.146729 
	C957.667236,843.300049 960.193542,844.353027 962.226685,845.645264 
	C998.167175,868.486694 1037.809448,873.608093 1079.230957,870.242859 
	C1104.807617,868.164917 1129.521118,862.312195 1153.035645,852.049500 
	C1163.504517,847.480469 1173.924072,848.917725 1184.415283,850.484802 
	C1200.815063,852.934509 1214.289795,861.175476 1226.085205,872.529785 
	C1241.798462,887.655334 1257.595581,902.693909 1273.662842,917.903931 
	C1273.969116,918.038025 1273.990967,918.007019 1274.064819,918.246155 
	C1274.426270,918.648254 1274.713867,918.811218 1275.001465,918.974243 
z"/>
<!-- bottom drop -->
<path fill="#FFFFFF" opacity="1.000000" stroke="none" 
	d="
M854.758606,1097.661865 
	C838.037720,1123.160156 828.401672,1150.938965 823.487915,1180.485352 
	C822.806824,1184.580933 822.335693,1188.716431 821.908447,1192.848145 
	C820.815552,1203.415894 811.403931,1211.612427 801.038513,1210.939331 
	C791.601624,1210.326782 783.423157,1201.227295 784.191833,1190.944336 
	C785.697632,1170.801758 789.956787,1151.136597 796.397278,1131.992065 
	C802.791931,1112.983765 811.180237,1094.909546 822.503662,1078.276978 
	C827.762390,1070.552490 834.790283,1067.468750 843.000427,1069.341064 
	C850.709778,1071.099243 856.594299,1077.255981 857.364075,1085.901001 
	C857.694641,1089.612671 855.821594,1093.520630 854.758606,1097.661865 
z"/>
<!-- tongue middle -->
<path fill="#CE4066" opacity="1.000000" stroke="none" 
	d="
M1028.140869,956.045654 
	C1035.412231,958.631348 1042.476074,961.525330 1049.760254,964.686768 
	C1037.734009,974.018799 1025.293457,982.834839 1013.287170,992.207031 
	C996.160828,1005.575928 981.984253,1021.785950 968.866394,1039.060059 
	C952.553833,1060.541016 940.091309,1084.090332 929.562561,1108.791504 
	C928.622192,1110.997803 927.121582,1113.270508 925.262634,1114.717773 
	C921.107178,1117.953125 916.685852,1117.753052 912.994324,1114.264404 
	C909.661377,1111.114746 908.767761,1106.749756 910.757935,1102.810303 
	C919.888306,1084.737793 928.651001,1066.423218 938.867981,1048.969604 
	C953.479004,1024.009644 972.293152,1002.188171 993.841309,982.955566 
	C1004.077942,973.818848 1015.573608,966.093018 1026.490723,957.717224 
	C1027.012817,957.316650 1027.454346,956.810730 1028.140869,956.045654 
z"/>
<!-- top shine -->
<path fill="#FFFFFF" opacity="1.000000" stroke="none" 
	d="
M878.959717,1005.954224 
	C887.623413,998.921875 895.929199,992.004150 904.462769,985.379883 
	C910.183716,980.939026 916.586304,978.349915 924.001465,980.799622 
	C930.665649,983.001343 935.239624,987.477234 936.661011,994.355713 
	C938.248535,1002.037964 936.291199,1008.910156 930.074524,1014.131714 
	C919.649841,1022.887756 909.198792,1031.612671 898.719238,1040.303101 
	C891.820984,1046.023682 884.194275,1047.755493 876.074951,1043.293335 
	C869.084961,1039.451782 865.026489,1033.227173 866.259460,1025.219238 
	C866.925171,1020.895264 869.607117,1016.718689 872.027405,1012.884705 
	C873.667786,1010.286194 876.435242,1008.399048 878.959717,1005.954224 
z"/>
</svg>
