<?xml version="1.0" encoding="utf-8"?>
<svg xmlns="http://www.w3.org/2000/svg" viewBox="0 0 500 500" xmlns:bx="https://boxy-svg.com">
  <defs>
    <bx:export>
      <bx:file format="svg"/>
    </bx:export>
  </defs>
  <g id="Layer_1" transform="matrix(0.977449, 0, 0, 1.06304, 4.5098, 1.96634)" style="">
    <path fill="#F86284" opacity="1.000000" stroke="none" d="M 303.156 388.811 C 296.011 398.488 286.551 405.402 276.924 412.001 C 241.746 436.112 202.955 444.894 161.25 440.754 C 128.997 437.552 98.997 427.552 72.704 407.454 C 37.654 380.66 18.142 344.299 12.318 299.714 C 7.85 265.518 13.701 232.789 25.207 200.883 C 29.055 190.214 32.629 179.403 37.536 169.181 C 49.177 144.929 64.004 119.736 66.501 116.276 C 76.542 102.367 85.725 87.566 97.619 75.327 C 120.363 51.924 142.144 41.337 146.297 39.208 C 169.201 27.473 193.14 24.071 218.27 29.865 C 236.004 33.954 257.342 43.633 288.87 60.743 C 294.11 60.218 296.374 59.014 300.701 56.262 C 338.701 32.094 356.735 31.458 386.007 27.55 C 411.361 24.165 435.772 24.192 460.487 31.61 C 472.478 35.209 494.421 39.599 491.049 53.026 C 488.47 63.295 474.914 71.139 467.179 78.325 C 452.803 91.681 423.936 135.514 418.172 148.542 C 404.72 178.949 389.07 208.017 378.751 239.728 C 372.572 258.715 366.835 277.872 360.089 296.638 C 353.426 315.17 344.493 332.637 334.06 349.228 C 325.071 363.525 315.26 377.135 303.156 388.811 Z" style=""/>
    <path fill="#FFFFFF" opacity="1.000000" stroke="none" d="M 122.408 179.852 C 107.897 202.827 99.535 227.858 95.269 254.481 C 94.679 258.172 94.27 261.898 93.899 265.621 C 92.951 275.144 84.782 282.529 75.788 281.923 C 67.598 281.371 60.499 273.171 61.167 263.906 C 62.474 245.756 66.17 228.037 71.758 210.786 C 77.308 193.658 84.589 177.372 94.416 162.384 C 98.978 155.424 105.078 152.646 112.202 154.332 C 118.894 155.916 124.001 161.464 124.668 169.254 C 124.956 172.599 123.331 176.12 122.408 179.852 Z" style=""/>
    <path fill="#CE4066" opacity="1.000000" stroke="none" d="M 272.603 52.087 C 278.914 54.416 285.659 57.581 291.98 60.43 C 281.544 68.839 270.405 76.384 259.986 84.829 C 245.123 96.875 232.82 111.482 221.435 127.047 C 207.279 146.403 196.463 167.622 187.326 189.881 C 186.51 191.868 185.208 193.917 183.595 195.22 C 179.988 198.135 176.15 197.955 172.947 194.811 C 170.055 191.974 169.28 188.041 171.007 184.49 C 178.93 168.206 186.535 151.703 195.402 135.977 C 208.082 113.486 224.409 93.823 243.11 76.493 C 251.994 68.26 272.007 52.777 272.603 52.087 Z" style=""/>
    <path fill="#FFFFFF" opacity="1.000000" stroke="none" d="M 139.966 93.772 C 147.485 87.436 154.693 81.202 162.1 75.233 C 167.064 71.232 172.62 68.899 179.055 71.106 C 184.84 73.09 188.809 77.123 190.042 83.321 C 191.42 90.243 189.721 96.436 184.327 101.141 C 175.279 109.031 166.21 116.893 157.115 124.723 C 151.128 129.878 144.509 131.438 137.463 127.417 C 131.396 123.956 127.874 118.347 128.944 111.131 C 129.522 107.235 131.849 103.472 133.95 100.017 C 135.374 97.675 137.776 95.975 139.966 93.772 Z" style="transform-box: fill-box; transform-origin: 50% 50%;" transform="matrix(0.997135, -0.075639, 0.075639, 0.997135, 0, -0.000001)"/>
  </g>
</svg>